Coordinates
version=1
nRows=24
nColumns=38
inDegrees=no

Units are S.I. units (second, meters, Newtons, ...)
If the header above contains a line with 'inDegrees', this indicates whether rotational values are in degrees (yes) or radians (no).

endheader
time	pelvis_tilt	pelvis_list	pelvis_rotation	pelvis_tx	pelvis_ty	pelvis_tz	hip_flexion_r	hip_adduction_r	hip_rotation_r	knee_angle_r	ankle_angle_r	subtalar_angle_r	mtp_angle_r	hip_flexion_l	hip_adduction_l	hip_rotation_l	knee_angle_l	ankle_angle_l	subtalar_angle_l	mtp_angle_l	lumbar_extension	lumbar_bending	lumbar_rotation	arm_flex_r	arm_add_r	arm_rot_r	elbow_flex_r	pro_sup_r	wrist_flex_r	wrist_dev_r	arm_flex_l	arm_add_l	arm_rot_l	elbow_flex_l	pro_sup_l	wrist_flex_l	wrist_dev_l
5	0.352289	1.47838	1.18481	0.735854	-0.239328	1.03314	0.194085	-0.01234	-0.0109806	0.330916	-0.238315	0	0	0.00454691	-0.0735532	-0.180709	0.0691372	-0.376101	0	0	-0.246721	0.0608385	0.0372746	0.175297	-0.464884	1.03928	0.599228	0.402443	0	0	0.14876	-0.316877	0.718814	0.509159	1.03202	0	0
5.01	0.390993	1.4828	1.1451	0.735473	-0.238139	1.03372	0.180136	-0.01175	-0.017667	0.31725	-0.241848	0	0	-0.00979468	-0.0737873	-0.182762	0.0550024	-0.382658	0	0	-0.244803	0.0630955	0.03371	0.170948	-0.464124	1.03648	0.598099	0.401266	0	0	0.141334	-0.316705	0.715718	0.506895	1.03939	0	0
5.02	0.440445	1.48824	1.09442	0.735127	-0.237093	1.03433	0.165272	-0.0110954	-0.0244012	0.304339	-0.245277	0	0	-0.0251861	-0.0740394	-0.185683	0.0415406	-0.388763	0	0	-0.245164	0.0650494	0.0306866	0.167287	-0.463523	1.03323	0.597292	0.399529	0	0	0.134957	-0.31646	0.712189	0.504668	1.04651	0	0
5.03	0.504624	1.49454	1.02838	0.734807	-0.23622	1.03495	0.149419	-0.0102169	-0.0299836	0.291932	-0.248561	0	0	-0.0418708	-0.0741622	-0.189521	0.0281739	-0.394366	0	0	-0.247763	0.066771	0.0285172	0.164547	-0.463391	1.03008	0.597049	0.397124	0	0	0.129669	-0.315733	0.708256	0.501475	1.05366	0	0
5.04	0.588351	1.5013	0.942466	0.734475	-0.235429	1.03558	0.132391	-0.00918831	-0.034797	0.279272	-0.25197	0	0	-0.059264	-0.0741113	-0.194269	0.0159338	-0.398892	0	0	-0.25213	0.0684111	0.0267751	0.162487	-0.463671	1.02755	0.59713	0.394529	0	0	0.125055	-0.314547	0.703765	0.497757	1.0607	0	0
5.05	0.69676	1.50783	0.832893	0.734047	-0.23459	1.03619	0.113455	-0.00809008	-0.0405776	0.263845	-0.255611	0	0	-0.0762378	-0.0740662	-0.198756	0.00610072	-0.401916	0	0	-0.257274	0.0703384	0.0244294	0.160578	-0.464013	1.02595	0.596933	0.392288	0	0	0.120966	-0.312739	0.698788	0.493006	1.06809	0	0
5.06	0.800971	1.51271	0.729726	0.733414	-0.233694	1.03659	0.0963529	-0.00796532	-0.0484841	0.248915	-0.25837	0	0	-0.0903974	-0.0736594	-0.201239	0	-0.403594	0	0	-0.260627	0.0721123	0.0203089	0.158258	-0.463701	1.0246	0.595657	0.390403	0	0	0.117115	-0.310441	0.693574	0.487089	1.07517	0	0
5.07	0.969072	1.51548	0.562198	0.733103	-0.233121	1.03736	0.0773707	-0.00370454	-0.0516553	0.232579	-0.261042	0	0	-0.105158	-0.0769155	-0.204574	0	-0.404909	0	0	-0.267353	0.0760506	0.0176307	0.157982	-0.462686	1.02451	0.592931	0.388225	0	0	0.115013	-0.307096	0.685971	0.479497	1.08392	0	0
5.08	0.951638	1.51976	0.579813	0.732253	-0.232115	1.03676	0.0705132	-0.0104444	-0.0610798	0.225046	-0.260174	0	0	-0.111566	-0.0704363	-0.207566	0	-0.405028	0	0	-0.262952	0.0724048	0.0132462	0.154271	-0.461388	1.02452	0.589884	0.38652	0	0	0.110041	-0.303527	0.678003	0.471285	1.0923	0	0
5.09	0.919106	1.52016	0.61113	0.731995	-0.231554	1.03611	0.0688285	-0.0128319	-0.0629853	0.221675	-0.25552	0	0	-0.114114	-0.0680632	-0.208426	0	-0.403091	0	0	-0.255981	0.0701935	0.0189161	0.142001	-0.459698	1.00639	0.586906	0.396355	0	0	0.119133	-0.305057	0.73072	0.459468	1.0413	0	0
5.1	0.970076	1.52261	0.559763	0.73158	-0.230944	1.03594	0.059631	-0.0142958	-0.0664102	0.212348	-0.255976	0	0	-0.121716	-0.0662796	-0.210135	0	-0.403022	0	0	-0.255935	0.0692421	0.0177358	0.139415	-0.457955	1.00593	0.583152	0.396018	0	0	0.118014	-0.30126	0.727983	0.449123	1.0419	0	0
5.11	1.03378	1.52518	0.495574	0.731156	-0.230494	1.03585	0.0501773	-0.0156204	-0.0677585	0.202993	-0.256422	0	0	-0.129073	-0.0645948	-0.21252	0	-0.402867	0	0	-0.257177	0.0682189	0.0168371	0.137694	-0.456253	1.00628	0.579277	0.395853	0	0	0.117755	-0.297097	0.724177	0.438713	1.04201	0	0
5.12	1.11628	1.52785	0.412577	0.730756	-0.230136	1.03582	0.0408949	-0.0170657	-0.0681638	0.195181	-0.256821	0	0	-0.136624	-0.0629884	-0.215125	0	-0.402654	0	0	-0.259716	0.067021	0.0161992	0.136657	-0.454554	1.00739	0.575343	0.395899	0	0	0.118229	-0.292528	0.718728	0.42795	1.04128	0	0
5.13	1.22057	1.53022	0.30743	0.730415	-0.229833	1.03586	0.0314926	-0.0183458	-0.0679094	0.187799	-0.257295	0	0	-0.144678	-0.0614962	-0.21717	0	-0.402499	0	0	-0.263105	0.065861	0.016151	0.136054	-0.453021	1.00918	0.571546	0.396045	0	0	0.118758	-0.288014	0.711739	0.417759	1.04012	0	0
5.14	1.34729	1.53197	0.179296	0.730134	-0.229627	1.03593	0.0221564	-0.0190792	-0.0658024	0.180732	-0.257854	0	0	-0.153102	-0.0601898	-0.218767	0	-0.40232	0	0	-0.267253	0.0647575	0.0165994	0.135933	-0.451728	1.01149	0.568231	0.396182	0	0	0.119188	-0.283716	0.703105	0.408614	1.03867	0	0
5.15	1.48297	1.53266	0.0421035	0.729882	-0.229583	1.03601	0.0140259	-0.0192991	-0.0622118	0.175625	-0.258337	0	0	-0.161013	-0.0593808	-0.220576	0	-0.401994	0	0	-0.271808	0.0640842	0.0170028	0.136501	-0.450799	1.01419	0.565691	0.396218	0	0	0.119805	-0.279126	0.692545	0.399581	1.03623	0	0
5.16	1.86866	1.52378	-0.339357	0.729495	-0.228695	1.0376	-0.0124412	-0.0114366	-0.0697454	0.162637	-0.261374	0	0	-0.182901	-0.0670614	-0.224845	0	-0.40299	0	0	-0.288583	0.0710962	0.0143158	0.137766	-0.450184	1.01759	0.563242	0.395854	0	0	0.120914	-0.273766	0.679035	0.390463	1.03376	0	0
5.17	1.78012	1.53022	-0.255018	0.729017	-0.229118	1.03656	-0.00438305	-0.0185205	-0.0597694	0.164545	-0.263137	0	0	-0.177797	-0.0595298	-0.225364	0	-0.402004	0	0	-0.287004	0.0661845	-0.000321219	0.155736	-0.447872	1.05089	0.559463	0.387091	0	0	0.0946193	-0.253075	0.494495	0.388331	1.18664	0	0
5.18	1.90436	1.52903	-0.377989	0.728717	-0.228965	1.03663	-0.0114292	-0.0192308	-0.0611746	0.162311	-0.262284	0	0	-0.18477	-0.0591102	-0.225928	0	-0.401997	0	0	-0.285761	0.0651615	0.0125886	0.138718	-0.449255	1.02437	0.560518	0.395485	0	0	0.117824	-0.265739	0.648302	0.378593	1.02984	0	0
5.19	1.93662	1.52859	-0.409603	0.728378	-0.228819	1.03656	-0.0136406	-0.0197145	-0.0602306	0.16146	-0.262182	0	0	-0.187215	-0.0588636	-0.226494	0	-0.401553	0	0	-0.285409	0.0651946	0.0107166	0.138731	-0.448096	1.02682	0.558227	0.39566	0	0	0.116441	-0.261665	0.63396	0.373121	1.02707	0	0
5.2	1.8964	1.52885	-0.369212	0.72796	-0.228692	1.03643	-0.0122231	-0.0197053	-0.0575198	0.160799	-0.262212	0	0	-0.185838	-0.058955	-0.227099	0	-0.400763	0	0	-0.288281	0.0664472	-0.00490129	0.150834	-0.443738	1.03813	0.554257	0.409018	0	0	0.0913976	-0.238023	0.42947	0.372449	1.20275	0	0
5.21	1.8934	1.5292	-0.365864	0.727666	-0.228733	1.03634	-0.0119306	-0.0203449	-0.0554951	0.160786	-0.261402	0	0	-0.18558	-0.0586081	-0.227804	0	-0.400513	0	0	-0.287131	0.0664814	-0.00546685	0.1477	-0.442359	1.02752	0.553453	0.420732	0	0	0.0908975	-0.233473	0.410729	0.369222	1.20867	0	0
5.22	1.87445	1.52972	-0.346664	0.727399	-0.228825	1.03622	-0.0101622	-0.0209528	-0.0535839	0.162366	-0.25961	0	0	-0.184356	-0.0583734	-0.228347	0	-0.400323	0	0	-0.285631	0.0666391	-0.0054638	0.143256	-0.440699	1.01151	0.552914	0.436736	0	0	0.0902873	-0.229336	0.391995	0.367493	1.21771	0	0
5.23	1.97387	1.52846	-0.445234	0.727217	-0.228996	1.0364	-0.0146533	-0.0214817	-0.0541826	0.16243	-0.260946	0	0	-0.188848	-0.0581971	-0.229704	0	-0.400749	0	0	-0.281522	0.0669933	0.000843177	0.143683	-0.444668	1.03927	0.552218	0.391962	0	0	0.106554	-0.248654	0.565558	0.366879	1.03212	0	0
